<svg width="197" height="52" viewBox="0 0 197 52" fill="none" xmlns="http://www.w3.org/2000/svg">
<path d="M105.071 9.90909V39H101.662L85.81 16.1591H85.5259V39H82.0032V9.90909H85.4123L101.321 32.8068H101.605V9.90909H105.071ZM111.666 39V17.1818H115.018V39H111.666ZM113.37 13.5455C112.717 13.5455 112.154 13.3229 111.68 12.8778C111.216 12.4328 110.984 11.8977 110.984 11.2727C110.984 10.6477 111.216 10.1127 111.68 9.66761C112.154 9.22254 112.717 9 113.37 9C114.024 9 114.583 9.22254 115.047 9.66761C115.52 10.1127 115.757 10.6477 115.757 11.2727C115.757 11.8977 115.52 12.4328 115.047 12.8778C114.583 13.3229 114.024 13.5455 113.37 13.5455ZM124.51 25.875V39H121.158V17.1818H124.397V20.5909H124.681C125.192 19.483 125.969 18.5928 127.01 17.9205C128.052 17.2386 129.397 16.8977 131.044 16.8977C132.522 16.8977 133.814 17.2008 134.922 17.8068C136.03 18.4034 136.892 19.3125 137.507 20.5341C138.123 21.7462 138.431 23.2803 138.431 25.1364V39H135.078V25.3636C135.078 23.6496 134.633 22.3144 133.743 21.358C132.853 20.392 131.632 19.9091 130.078 19.9091C129.008 19.9091 128.052 20.1411 127.209 20.6051C126.376 21.0691 125.718 21.7462 125.235 22.6364C124.752 23.5265 124.51 24.6061 124.51 25.875ZM144.556 17.1818H147.909V40.5909C147.909 41.9356 147.677 43.1004 147.213 44.0852C146.758 45.0701 146.067 45.8324 145.139 46.3722C144.22 46.9119 143.06 47.1818 141.659 47.1818C141.545 47.1818 141.431 47.1818 141.318 47.1818C141.204 47.1818 141.091 47.1818 140.977 47.1818V44.0568C141.091 44.0568 141.195 44.0568 141.289 44.0568C141.384 44.0568 141.488 44.0568 141.602 44.0568C142.625 44.0568 143.373 43.7538 143.846 43.1477C144.32 42.5511 144.556 41.6989 144.556 40.5909V17.1818ZM146.204 13.5455C145.551 13.5455 144.987 13.3229 144.514 12.8778C144.05 12.4328 143.818 11.8977 143.818 11.2727C143.818 10.6477 144.05 10.1127 144.514 9.66761C144.987 9.22254 145.551 9 146.204 9C146.858 9 147.416 9.22254 147.88 9.66761C148.354 10.1127 148.591 10.6477 148.591 11.2727C148.591 11.8977 148.354 12.4328 147.88 12.8778C147.416 13.3229 146.858 13.5455 146.204 13.5455ZM160.469 39.5114C159.087 39.5114 157.832 39.2509 156.705 38.7301C155.578 38.1998 154.683 37.4375 154.02 36.4432C153.357 35.4394 153.026 34.2273 153.026 32.8068C153.026 31.5568 153.272 30.5436 153.765 29.767C154.257 28.9811 154.915 28.3655 155.739 27.9205C156.563 27.4754 157.472 27.1439 158.466 26.9261C159.47 26.6989 160.479 26.5189 161.492 26.3864C162.818 26.2159 163.892 26.0881 164.716 26.0028C165.55 25.9081 166.156 25.7519 166.534 25.5341C166.923 25.3163 167.117 24.9375 167.117 24.3977V24.2841C167.117 22.8826 166.733 21.7936 165.966 21.017C165.209 20.2405 164.058 19.8523 162.515 19.8523C160.914 19.8523 159.659 20.2027 158.75 20.9034C157.841 21.6042 157.202 22.3523 156.833 23.1477L153.651 22.0114C154.219 20.6856 154.977 19.6534 155.924 18.9148C156.88 18.1667 157.922 17.6458 159.049 17.3523C160.185 17.0492 161.302 16.8977 162.401 16.8977C163.102 16.8977 163.907 16.983 164.816 17.1534C165.734 17.3144 166.62 17.6506 167.472 18.1619C168.334 18.6733 169.049 19.4451 169.617 20.4773C170.185 21.5095 170.469 22.892 170.469 24.625V39H167.117V36.0455H166.946C166.719 36.5189 166.34 37.0256 165.81 37.5653C165.28 38.1051 164.574 38.5644 163.694 38.9432C162.813 39.322 161.738 39.5114 160.469 39.5114ZM160.98 36.5C162.306 36.5 163.424 36.2396 164.333 35.7188C165.251 35.1979 165.943 34.5256 166.407 33.7017C166.88 32.8778 167.117 32.0114 167.117 31.1023V28.0341C166.975 28.2045 166.662 28.3608 166.179 28.5028C165.706 28.6354 165.157 28.7538 164.532 28.858C163.916 28.9527 163.315 29.0379 162.728 29.1136C162.15 29.1799 161.681 29.2367 161.321 29.2841C160.45 29.3977 159.636 29.5824 158.878 29.8381C158.13 30.0843 157.524 30.4583 157.06 30.9602C156.605 31.4527 156.378 32.125 156.378 32.9773C156.378 34.142 156.809 35.0227 157.671 35.6193C158.542 36.2064 159.645 36.5 160.98 36.5Z" fill="black"/>
<g clip-path="url(#clip0_415_5)">
<path d="M42 4C34.3047 4 27.8281 8.34375 24.5 14.6875C23.1797 14.9922 22.1562 15.3906 21.625 16C20.2266 17.6016 20.1875 22.625 20.1875 22.625C20.1875 22.625 20.5391 22.7812 20.8125 22.9375C17.8906 25.4375 16 28.5703 16 32C16 35.2188 17.5156 38.1719 19.875 40.5C22.1172 42.7109 25.1406 44.3594 28.625 45.625C31.6328 49.8047 36.4531 52.375 42 52.375C47.3594 52.375 52.1484 49.6875 55.1875 45.75C58.7656 44.4844 61.8359 42.7578 64.125 40.5C66.4844 38.1719 68 35.2188 68 32C68 28.3281 65.9609 25.2031 63.0625 22.75C63.3203 22.5312 63.5625 22.3203 63.625 22.1875C63.8438 21.7422 63.6641 20.2188 63.3125 18.75C64.625 18.1016 66.6875 16.6484 67.375 13.625C68.375 9.22656 65 6.1875 65 6.1875C65 6.1875 64.5469 7.38281 63.5625 9.1875C61.9844 6.99219 59.625 6.1875 59.625 6.1875C59.625 6.1875 59.5859 8 59.1875 11C58.9844 12.6016 59.6016 14.0859 60.25 15.1875C60.0781 15.1406 59.875 15.1094 59.6875 15.0625C56.4062 8.53906 49.8359 4 42 4ZM42 8C47.1641 8 51.6562 10.3828 54.5625 14.125C53.6953 14.0391 52.8047 14 52 14C48 14 45.2031 16.375 42 16.375C38.7969 16.375 36 14 32 14C31.2031 14 30.3438 14.0234 29.5 14.0625C32.4141 10.3594 36.8672 8 42 8ZM32.1875 17.8125C35.3047 17.8125 38.2188 19.7109 39.1875 20.4375C37.9844 20.6484 36.7969 20.9844 35.6875 21.4375C35.4453 20.7344 34.7891 20.1875 34 20.1875C33.0078 20.1875 32.1875 21.0078 32.1875 22C32.1875 22.4219 32.3828 22.7578 32.625 23.0625C32.4531 23.1797 32.2969 23.3125 32.125 23.4375C29.2812 23.5312 26.1875 22 26.1875 22C26.1875 22 28.3906 17.8125 32.1875 17.8125ZM51.625 17.8125C55.4219 17.8125 57.625 22 57.625 22C57.625 22 54.7656 23.4688 52 23.4375C51.8125 23.2969 51.6328 23.1328 51.4375 23C51.6484 22.7031 51.8125 22.3906 51.8125 22C51.8125 21.0078 50.9922 20.1875 50 20.1875C49.2344 20.1875 48.5703 20.6953 48.3125 21.375C47.1797 20.9297 45.9297 20.6328 44.6875 20.4375C45.7109 19.6797 48.5703 17.8125 51.625 17.8125ZM42 24.1875C46.5859 24.1875 50.2656 26.2422 52.5 29.6875C53.1016 30.6172 54.3516 30.8828 55.2812 30.2812C56.2109 29.6797 56.4766 28.4297 55.875 27.5C55.5547 27.0078 55.2422 26.5156 54.875 26.0625C56.5469 25.8438 58.1562 25.4453 59.5 24.875C62.3516 26.9609 64 29.4766 64 32C64 33.9844 63.1094 35.8516 61.3125 37.625C59.5156 39.3984 56.8438 41 53.5625 42.125C53.1562 42.2656 52.8047 42.5234 52.5625 42.875C50.3438 46.1172 46.3047 48.375 42 48.375C37.4141 48.375 33.7344 46.3828 31.5 42.9375C31.25 42.5547 30.875 42.2656 30.4375 42.125C27.1562 41 24.4844 39.3984 22.6875 37.625C20.8906 35.8516 20 33.9844 20 32C20 29.5625 21.5703 26.8516 24.6875 24.75C26.1172 25.2891 27.7109 25.7578 29.3125 25.9375C28.875 26.4375 28.5 26.9531 28.125 27.5C27.5 28.4141 27.7422 29.6562 28.6562 30.2812C29.5703 30.9062 30.8125 30.6641 31.4375 29.75C33.6562 26.5078 37.6953 24.1875 42 24.1875ZM52.0625 35.875C51.7031 35.9141 51.2891 35.9844 50.8125 36.1875C40.4141 40.3906 31.375 36.1875 31.375 36.1875C31.375 36.1875 36.1719 41.7734 51.375 39.375C54.1719 38.8516 54.5625 35.6172 52.0625 35.875Z" fill="black"/>
</g>
<defs>
<clipPath id="clip0_415_5">
<rect width="52" height="52" fill="white" transform="translate(16)"/>
</clipPath>
</defs>
</svg>
